<svg width="24" height="24" viewBox="0 0 24 24" fill="none" xmlns="http://www.w3.org/2000/svg">
<path fill-rule="evenodd" clip-rule="evenodd" d="M7.18165 6.8704C7.19255 4.34612 9.24767 2.31029 11.771 2.32035C14.2939 2.32119 16.339 4.36705 16.339 6.89087V10.7051H14.899V6.89087C14.899 5.16158 13.4975 3.76035 11.7695 3.76035H11.7664C10.0374 3.75288 8.6299 5.14701 8.62164 6.87516V10.7051H7.18164L7.18165 6.8704Z" fill="#4A3F39"/>
<path fill-rule="evenodd" clip-rule="evenodd" d="M11.7602 21.9467C6.45822 21.9467 2.16016 17.6486 2.16016 12.3467V6.88672H21.3602V12.3467C21.3602 17.6486 17.062 21.9467 11.7602 21.9467ZM3.60016 12.3467C3.60016 16.8533 7.25351 20.5067 11.7602 20.5067C16.2668 20.5067 19.9202 16.8533 19.9202 12.3467V8.32672H3.60016V12.3467Z" fill="#4A3F39"/>
</svg>
