<svg width="449" height="156" viewBox="0 0 449 156" fill="none" xmlns="http://www.w3.org/2000/svg">
<path fill-rule="evenodd" clip-rule="evenodd" d="M339.545 61.0061C337.166 58.0015 334.6 55.8107 331.846 54.4336C329.091 52.9313 325.774 52.1802 321.893 52.1802C318.137 52.1802 314.757 52.7436 311.753 53.8703C308.748 54.997 306.182 56.9374 304.054 59.6916C302.05 62.4457 300.486 66.2014 299.359 70.9586C298.357 75.7158 297.857 81.7249 297.857 88.9859C297.857 93.2424 298.295 97.4362 299.171 101.567C300.047 105.574 301.299 109.204 302.927 112.459C304.679 115.589 306.745 118.155 309.124 120.158C311.627 122.036 314.507 122.975 317.762 122.975C323.02 122.975 327.339 122.099 330.719 120.346C334.224 118.468 337.166 116.089 339.545 113.21V61.0061ZM357.196 99.1263C357.196 104.259 357.259 108.453 357.384 111.708C357.479 112.899 357.439 114.121 357.401 115.282C357.338 117.173 357.281 118.901 357.824 120.064C358.584 121.395 359.814 122.979 361.185 123.993C362.334 124.333 363.596 124.609 364.802 124.873C366.161 125.17 367.448 125.452 368.424 125.792C371.429 126.668 374.997 127.106 379.128 127.106C383.635 127.106 387.265 125.854 390.019 123.35C392.899 120.847 394.338 117.341 394.338 112.834C394.338 108.828 392.899 105.699 390.019 103.445C387.265 101.067 384.01 99.0011 380.255 97.2484C378.502 96.4973 376.687 95.7461 374.809 94.995C373.056 94.2439 371.241 93.4927 369.363 92.7416L361.101 89.3615C359.731 88.7094 358.43 87.9894 357.196 87.2015V99.1263ZM341.483 132.407C341.363 132.209 341.248 131.988 341.138 131.744C340.86 131.669 340.848 131.598 341.045 131.53C340.981 131.378 340.919 131.218 340.859 131.05C340.233 129.297 339.92 126.856 339.92 123.726C339.92 123.1 339.733 122.85 339.357 122.975C339.107 123.1 338.856 123.288 338.606 123.538C334.725 127.044 330.969 129.61 327.339 131.237C323.708 132.865 319.264 133.679 314.006 133.679C308.498 133.679 303.49 132.74 298.983 130.862C294.602 128.859 290.846 126.105 287.716 122.599C287.021 121.759 286.36 120.879 285.732 119.959C285.269 120.478 284.793 120.982 284.302 121.473C280.422 125.479 275.727 128.546 270.219 130.674C264.71 132.677 258.576 133.679 251.816 133.679C245.932 133.679 240.486 132.74 235.479 130.862C230.471 128.859 226.152 125.979 222.521 122.224C221.276 120.892 220.119 119.45 219.05 117.898C218.078 119.163 217.033 120.354 215.914 121.473C212.033 125.479 207.339 128.546 201.831 130.674C196.322 132.677 190.188 133.679 183.428 133.679C177.544 133.679 172.098 132.74 167.09 130.862C162.083 128.859 157.764 125.979 154.133 122.224C150.503 118.343 147.623 113.523 145.495 107.764C144.055 103.783 143.102 99.3431 142.637 94.4447L130.698 131.613C130.447 132.489 129.884 133.115 129.008 133.491C128.131 133.866 127.192 134.054 126.191 134.054C125.315 134.054 124.501 133.804 123.75 133.303C122.999 132.927 122.56 132.427 122.435 131.801L92.7654 45.9834C92.515 45.107 92.0143 44.7315 91.2631 44.8566C90.512 44.8566 90.0112 45.2948 89.7608 46.1711L64.41 131.237C64.0344 132.239 63.4085 132.927 62.5321 133.303C61.781 133.804 60.9047 133.992 59.9032 133.866C59.0268 133.866 58.2131 133.616 57.462 133.115C56.7108 132.74 56.2101 132.239 55.9597 131.613C50.3262 115.213 44.7552 99.0637 39.2469 83.1646C33.7386 67.1404 28.3554 50.1772 23.0975 32.2751C22.7219 31.1484 22.2211 29.8965 21.5952 28.5194C21.0944 27.0172 20.5311 25.5149 19.9051 24.0126C19.2792 22.5103 18.5906 21.0707 17.8395 19.6936C17.0884 18.3165 16.3998 17.1898 15.7739 16.3135C14.2716 14.1852 12.4564 12.8707 10.3281 12.37C8.19991 11.8692 5.44574 11.4937 2.06563 11.2433C1.43968 11.2433 0.938921 10.9303 0.563353 10.3044C0.187784 9.55322 0 8.80208 0 8.05095C0 7.29981 0.187784 6.61127 0.563353 5.98532C0.813732 5.35938 1.31449 5.0464 2.06563 5.0464C7.0732 5.0464 11.58 5.29678 15.5861 5.79754C19.7173 6.17311 24.0364 6.36089 28.5432 6.36089C33.3004 6.36089 38.2454 6.17311 43.3782 5.79754C48.5109 5.29678 53.7063 5.0464 58.9642 5.0464C59.7154 5.0464 60.2161 5.35938 60.4665 5.98532C60.8421 6.61127 60.9673 7.29981 60.8421 8.05095C60.8421 8.80208 60.6543 9.55322 60.2787 10.3044C59.9032 10.9303 59.4024 11.2433 58.7765 11.2433L53.1429 11.6188C51.2651 11.6188 49.5124 11.8692 47.885 12.37C46.2575 12.8707 44.943 13.6845 43.9415 14.8112C42.94 15.9379 42.4392 17.5653 42.4392 19.6936C42.4392 20.9455 42.6896 23.0737 43.1904 26.0782C43.8163 29.0828 44.8804 33.5896 46.3827 39.5987C48.0102 45.6078 50.201 53.4321 52.9551 63.0717C55.7093 72.5861 59.2772 84.5417 63.6588 98.9385C63.9092 99.6896 64.4726 100.128 65.3489 100.253C66.2252 100.253 66.7886 99.8148 67.039 98.9385L93.3287 5.0464C93.4539 4.42046 93.8295 3.98229 94.4555 3.73191C95.2066 3.35634 95.9577 3.16855 96.7089 3.16855C97.46 3.16855 98.1485 3.35634 98.7745 3.73191C99.5256 3.98229 99.9638 4.42046 100.089 5.0464L130.698 99.3141C130.948 100.316 131.512 100.816 132.388 100.816C133.264 100.691 133.828 100.316 134.078 99.6896L144.406 67.203C145.157 64.8244 146.034 61.5694 147.035 57.4382C148.162 53.3069 149.163 49.0505 150.04 44.6689C151.041 40.2872 151.855 36.156 152.481 32.2751C153.107 28.269 153.357 25.1393 153.232 22.8859C152.982 18.2539 151.855 15.1867 149.852 13.6845C147.974 12.1822 144.844 11.3685 140.463 11.2433C139.586 11.2433 138.96 10.9303 138.585 10.3044C138.209 9.67841 138.021 8.98987 138.021 8.23873C138.021 7.36241 138.209 6.61127 138.585 5.98532C139.085 5.35938 139.711 5.0464 140.463 5.0464C144.469 5.0464 148.099 5.29678 151.354 5.79754C154.734 6.17311 158.239 6.36089 161.87 6.36089C165.375 6.36089 168.38 6.17311 170.884 5.79754C173.387 5.29678 176.58 5.0464 180.461 5.0464C181.087 5.0464 181.587 5.35938 181.963 5.98532C182.464 6.61127 182.714 7.29981 182.714 8.05095C182.714 8.80208 182.526 9.55322 182.151 10.3044C181.775 10.9303 181.087 11.2433 180.085 11.2433C177.081 11.4937 174.577 12.37 172.574 13.8723C170.571 15.3745 168.881 17.3776 167.503 19.8814C166.126 22.3851 164.875 25.2645 163.748 28.5194C162.746 31.7744 161.682 35.1545 160.555 38.6598L155.3 55.0198C158.974 51.6986 163.28 49.062 168.217 47.11C173.6 44.9818 179.484 43.9177 185.869 43.9177C192.003 43.9177 197.637 44.8566 202.769 46.7345C208.027 48.6123 212.534 51.3665 216.29 54.997C217.611 56.2301 218.832 57.5718 219.952 59.0219C220.816 57.9385 221.735 56.9098 222.709 55.9359C226.59 52.1802 231.222 49.2382 236.605 47.11C241.988 44.9818 247.872 43.9177 254.257 43.9177C260.391 43.9177 266.025 44.8566 271.158 46.7345C276.415 48.6123 280.922 51.3665 284.678 54.997C286.139 56.361 287.478 57.8578 288.693 59.4873C289.854 58.0704 291.094 56.7614 292.411 55.5603C296.667 51.5543 301.425 48.6123 306.682 46.7345C312.066 44.8566 317.386 43.9177 322.644 43.9177C325.148 43.9177 327.902 44.2307 330.907 44.8566C333.911 45.3574 336.791 46.2963 339.545 47.6734V36.2186C339.545 30.8354 339.42 26.579 339.169 23.4492C338.919 20.1943 338.23 17.6905 337.104 15.9379C336.102 14.1852 334.475 12.9959 332.221 12.37C330.093 11.744 327.151 11.2433 323.395 10.8677C322.895 10.8677 322.456 10.5547 322.081 9.92876C321.83 9.30282 321.705 8.67687 321.705 8.05092C321.705 7.42498 321.83 6.79903 322.081 6.17308C322.331 5.54714 322.769 5.23416 323.395 5.23416C325.524 5.10897 327.839 4.98378 330.343 4.85859C332.847 4.60821 335.413 4.35784 338.042 4.10746C340.671 3.85708 343.238 3.48151 345.742 2.98075C348.245 2.47999 350.624 1.91664 352.877 1.29069C354.505 0.78993 355.569 0.915122 356.07 1.66626C356.696 2.29221 357.071 2.98075 357.196 3.73189V49.7654C357.308 49.6931 357.42 49.6217 357.533 49.5512C360.662 47.5482 364.105 46.1085 367.861 45.2322C371.617 44.3559 375.31 43.9177 378.94 43.9177C382.445 43.9177 385.513 44.3559 388.142 45.2322C390.896 45.9833 393.9 47.423 397.155 49.5512C397.656 49.8016 398.282 49.8016 399.033 49.5512C399.909 49.1756 400.598 48.1115 401.099 46.3589C401.224 45.8581 401.599 45.5452 402.225 45.42C402.851 45.2948 403.477 45.2948 404.103 45.42C404.729 45.42 405.293 45.5452 405.793 45.7955C406.294 46.0459 406.482 46.3589 406.357 46.7345C405.981 48.1115 405.606 49.8016 405.23 51.8046C404.98 53.8077 404.854 55.9359 404.854 58.1893C404.854 60.5679 404.917 63.0717 405.042 65.7007C405.167 68.2044 405.23 70.1449 405.23 71.522C405.23 71.8975 404.98 72.2105 404.479 72.4609C403.978 72.7113 403.415 72.8991 402.789 73.0242C402.163 73.0242 401.599 72.9616 401.099 72.8365C400.598 72.5861 400.285 72.2731 400.16 71.8975C398.783 65.2625 396.529 60.1923 393.4 56.687C390.27 53.0565 385.262 51.2413 378.377 51.2413C373.745 51.2413 369.927 52.4306 366.922 54.8092C363.917 57.0626 362.415 60.1297 362.415 64.0106C362.415 67.2655 363.667 69.7693 366.171 71.522C368.675 73.2746 371.992 74.9021 376.123 76.4044C377.876 77.0303 379.942 77.844 382.32 78.8456C384.824 79.7219 386.827 80.473 388.329 81.099C391.584 82.6012 394.589 84.1661 397.343 85.7936C400.222 87.421 402.664 89.3615 404.667 91.6149C406.795 93.7431 408.422 96.1843 409.549 98.9385C410.801 101.693 411.427 104.885 411.427 108.515C411.427 113.273 410.425 117.279 408.422 120.534C406.419 123.663 403.853 126.23 400.723 128.233C397.593 130.111 394.026 131.488 390.019 132.364C386.013 133.24 382.07 133.679 378.189 133.679C377.626 133.679 376.078 133.845 373.917 134.078C364.411 135.101 343.045 137.4 341.483 132.407ZM276.04 74.5265C276.666 79.0333 276.979 83.6653 276.979 88.4226C276.979 93.0546 276.666 97.6866 276.04 102.319C275.539 106.825 274.412 110.894 272.66 114.525C271.032 118.155 268.716 121.097 265.712 123.35C262.707 125.604 258.764 126.731 253.881 126.731C249.124 126.731 245.181 125.541 242.051 123.163C239.046 120.784 236.668 117.779 234.915 114.149C233.163 110.518 231.973 106.45 231.347 101.943C230.721 97.4362 230.408 93.0546 230.408 88.7981C230.408 83.9157 230.721 79.2211 231.347 74.7143C232.098 70.2075 233.35 66.2014 235.103 62.6961C236.981 59.0656 239.485 56.1863 242.614 54.058C245.744 51.9298 249.813 50.8657 254.82 50.8657C259.327 50.8657 263.02 51.9298 265.9 54.058C268.779 56.1863 271.032 59.003 272.66 62.5083C274.287 66.0136 275.414 70.0197 276.04 74.5265ZM208.591 88.4226C208.591 83.6653 208.278 79.0333 207.652 74.5265C207.026 70.0197 205.899 66.0136 204.272 62.5083C202.644 59.003 200.391 56.1863 197.511 54.058C194.632 51.9298 190.939 50.8657 186.432 50.8657C181.425 50.8657 177.356 51.9298 174.226 54.058C171.096 56.1863 168.593 59.0656 166.715 62.6961C164.962 66.2014 163.71 70.2075 162.959 74.7143C162.333 79.2211 162.02 83.9157 162.02 88.7981C162.02 93.0546 162.333 97.4362 162.959 101.943C163.585 106.45 164.774 110.518 166.527 114.149C168.28 117.779 170.658 120.784 173.663 123.163C176.793 125.541 180.736 126.731 185.493 126.731C190.376 126.731 194.319 125.604 197.324 123.35C200.328 121.097 202.644 118.155 204.272 114.525C206.024 110.894 207.151 106.825 207.652 102.319C208.278 97.6866 208.591 93.0546 208.591 88.4226Z" fill="black"/>
<path fill-rule="evenodd" clip-rule="evenodd" d="M413.402 78.9062V154.456H408.045V78.9062H413.402Z" fill="#FFCC00"/>
<path fill-rule="evenodd" clip-rule="evenodd" d="M372.953 114.006H448.503V119.362H372.953V114.006Z" fill="#FFCC00"/>
<path fill-rule="evenodd" clip-rule="evenodd" d="M439.329 91.858L385.908 145.28L382.12 141.492L435.542 88.0703L439.329 91.858Z" fill="#FFCC00"/>
<path fill-rule="evenodd" clip-rule="evenodd" d="M385.908 88.0703L439.329 141.492L435.542 145.28L382.12 91.858L385.908 88.0703Z" fill="#FFCC00"/>
</svg>
